<svg aria-hidden="true" style="position: absolute; width: 0; height: 0; overflow: hidden;" version="1.1" xmlns="http://www.w3.org/2000/svg" xmlns:xlink="http://www.w3.org/1999/xlink">
<defs>
<symbol id="icon-menu" viewBox="0 0 32 32">
<path  d="M8.8 16h14.4M8.8 11.2h14.4M8.8 20.8h14.4"></path>
</symbol>

<symbol id="icon-galka" viewBox="0 0 32 32">
<path stroke-linejoin="round" stroke-linecap="round" stroke-miterlimit="4" stroke-width="3" d="M26 11l-10 10-10-10"></path>
</symbol>

<symbol id="icon-Frame-1" viewBox="0 0 32 32">
<path  stroke-linejoin="round" stroke-linecap="round" stroke-miterlimit="4" stroke-width="2.7826" d="M10 22l16-16M26 6h-15M26 6v15"></path>
</symbol>
<symbol id="icon-Frame-1506" viewBox="0 0 60 32">
<path  stroke-linejoin="round" stroke-linecap="round" stroke-miterlimit="4" stroke-width="4.2667" d="M2.133 16h55.467M57.6 16l-14.4-13.867M57.6 16l-14.4 13.867"></path>
</symbol>
<symbol id="icon-Frame-2" viewBox="0 0 32 32">
<path  stroke-linejoin="round" stroke-linecap="round" stroke-miterlimit="4" stroke-width="2.6667" d="M26 16h-20M6 16l9-9M6 16l9 9"></path>
</symbol>
<symbol id="icon-Social-Facebook" viewBox="0 0 32 32">
<path  d="M17.873 27.996v-10.928h3.687l0.548-4.279h-4.235v-2.725c0-1.235 0.344-2.080 2.116-2.080h2.245v-3.815c-1.093-0.117-2.191-0.174-3.289-0.169-3.259 0-5.496 1.989-5.496 5.641v3.14h-3.663v4.279h3.671v10.936h4.416z"></path>
</symbol>
<symbol id="icon-Social-Instagram" viewBox="0 0 32 32">
<path  d="M16.010 9.59c-3.547 0-6.409 2.863-6.409 6.409s2.862 6.409 6.409 6.409c3.547 0 6.409-2.863 6.409-6.409s-2.863-6.409-6.409-6.409zM16.010 20.165c-2.294 0-4.166-1.872-4.166-4.166s1.872-4.166 4.166-4.166c2.294 0 4.166 1.872 4.166 4.166s-1.872 4.166-4.166 4.166zM22.682 7.834c-0.828 0-1.497 0.669-1.497 1.497s0.669 1.497 1.497 1.497c0.828 0 1.497-0.666 1.497-1.497 0-0.197-0.038-0.391-0.113-0.573s-0.185-0.347-0.324-0.486-0.304-0.249-0.486-0.324c-0.182-0.075-0.377-0.114-0.573-0.113zM28.504 15.999c0-1.725 0.016-3.434-0.081-5.156-0.097-2-0.553-3.775-2.016-5.237-1.466-1.466-3.237-1.919-5.237-2.016-1.725-0.097-3.434-0.081-5.156-0.081-1.725 0-3.434-0.016-5.156 0.081-2 0.097-3.775 0.553-5.237 2.016-1.466 1.466-1.919 3.237-2.016 5.237-0.097 1.725-0.081 3.434-0.081 5.156s-0.016 3.434 0.081 5.156c0.097 2 0.553 3.775 2.016 5.237 1.466 1.466 3.237 1.919 5.237 2.016 1.725 0.097 3.434 0.081 5.156 0.081 1.725 0 3.434 0.016 5.156-0.081 2-0.097 3.775-0.553 5.237-2.016 1.466-1.466 1.919-3.237 2.016-5.237 0.1-1.722 0.081-3.431 0.081-5.156zM25.754 23.368c-0.228 0.569-0.503 0.994-0.944 1.431-0.441 0.441-0.862 0.716-1.431 0.944-1.644 0.653-5.547 0.506-7.369 0.506s-5.728 0.147-7.372-0.503c-0.569-0.228-0.994-0.503-1.431-0.944-0.441-0.441-0.716-0.863-0.944-1.431-0.65-1.647-0.503-5.55-0.503-7.372s-0.147-5.728 0.503-7.372c0.228-0.569 0.503-0.994 0.944-1.431s0.863-0.716 1.431-0.944c1.644-0.65 5.55-0.503 7.372-0.503s5.728-0.147 7.372 0.503c0.569 0.228 0.994 0.503 1.431 0.944 0.441 0.441 0.716 0.863 0.944 1.431 0.65 1.644 0.503 5.55 0.503 7.372s0.147 5.725-0.506 7.369z"></path>
</symbol>
<symbol id="icon-Social-twitter" viewBox="0 0 32 32">
<path  d="M29.010 7.947c-0.956 0.412-1.997 0.709-3.069 0.825 1.113-0.661 1.946-1.706 2.344-2.938-1.044 0.621-2.188 1.057-3.381 1.287-0.499-0.533-1.102-0.958-1.771-1.247s-1.392-0.439-2.122-0.437c-2.953 0-5.328 2.394-5.328 5.331 0 0.412 0.050 0.825 0.131 1.222-4.422-0.231-8.366-2.344-10.988-5.578-0.478 0.816-0.728 1.745-0.725 2.691 0 1.85 0.941 3.481 2.375 4.441-0.845-0.033-1.671-0.266-2.409-0.678v0.066c0 2.591 1.831 4.738 4.272 5.231-0.458 0.119-0.93 0.18-1.403 0.181-0.347 0-0.675-0.034-1.006-0.081 0.675 2.113 2.641 3.647 4.981 3.697-1.831 1.434-4.125 2.278-6.616 2.278-0.447 0-0.859-0.016-1.288-0.066 2.362 1.516 5.166 2.391 8.184 2.391 9.8 0 15.162-8.119 15.162-15.166 0-0.231 0-0.463-0.016-0.694 1.037-0.759 1.947-1.7 2.672-2.756z"></path>
</symbol>
<symbol id="icon-Frame" viewBox="0 0 32 32">
<path stroke-linejoin="round" stroke-linecap="round" stroke-miterlimit="4" stroke-width="1.4118" d="M10.981 10.981l9.983 9.983M20.963 10.981l-9.983 9.983"></path>
</symbol>
<symbol id="icon-heart" viewBox="0 0 32 32">
<path  stroke-linejoin="round" stroke-linecap="round" stroke-miterlimit="4" stroke-width="1.6" d="M23.433 10.089c-0.409-0.409-0.894-0.733-1.428-0.954s-1.106-0.335-1.684-0.335-1.15 0.114-1.684 0.335c-0.534 0.221-1.019 0.546-1.428 0.954l-0.848 0.848-0.848-0.848c-0.825-0.825-1.945-1.289-3.112-1.289s-2.287 0.464-3.112 1.289c-0.825 0.825-1.289 1.945-1.289 3.112s0.464 2.287 1.289 3.112l7.072 7.072 7.072-7.072c0.409-0.409 0.733-0.894 0.954-1.428s0.335-1.106 0.335-1.684-0.114-1.15-0.335-1.684c-0.221-0.534-0.546-1.019-0.954-1.428v0z"></path>
</symbol>
<symbol id="icon-Icon-1" viewBox="0 0 32 32">
<path  stroke-linejoin="round" stroke-linecap="round" stroke-miterlimit="4" stroke-width="1.2" d="M23.2 16c0 3.976-3.224 7.2-7.2 7.2M23.2 16c0-3.976-3.224-7.2-7.2-7.2M23.2 16h-14.4M16 23.2c-3.976 0-7.2-3.224-7.2-7.2M16 23.2c1.326 0 2.4-3.224 2.4-7.2s-1.074-7.2-2.4-7.2M16 23.2c-1.326 0-2.4-3.224-2.4-7.2s1.074-7.2 2.4-7.2M16 8.8c-3.976 0-7.2 3.224-7.2 7.2"></path>
</symbol>
<symbol id="icon-Icons-1" viewBox="0 0 32 32">
<path  stroke-linejoin="round" stroke-linecap="round" stroke-miterlimit="4" stroke-width="1.3333" d="M4.010 6.667c0-1.473 1.194-2.667 2.667-2.667h4.372c0.574 0 1.083 0.367 1.265 0.912l1.997 5.991c0.21 0.629-0.075 1.317-0.669 1.614l-3.010 1.505c1.47 3.26 4.096 5.886 7.355 7.355l1.505-3.010c0.297-0.593 0.985-0.878 1.614-0.669l5.991 1.997c0.544 0.181 0.912 0.691 0.912 1.265v4.372c0 1.473-1.194 2.667-2.667 2.667h-1.333c-11.046 0-20-8.954-20-20v-1.333z"></path>
</symbol>
<symbol id="icon-Icons-2" viewBox="0 0 32 32">
<path  stroke-linejoin="round" stroke-linecap="round" stroke-miterlimit="4" stroke-width="1.3333" d="M22.676 22.667h2.667c1.473 0 2.667-1.194 2.667-2.667v-5.333c0-1.473-1.194-2.667-2.667-2.667h-18.667c-1.473 0-2.667 1.194-2.667 2.667v5.333c0 1.473 1.194 2.667 2.667 2.667h2.667M12.010 28h8c1.473 0 2.667-1.194 2.667-2.667v-5.333c0-1.473-1.194-2.667-2.667-2.667h-8c-1.473 0-2.667 1.194-2.667 2.667v5.333c0 1.473 1.194 2.667 2.667 2.667zM22.676 12v-5.333c0-1.473-1.194-2.667-2.667-2.667h-8c-1.473 0-2.667 1.194-2.667 2.667v5.333h13.333z"></path>
</symbol>
<symbol id="icon-Icons-3" viewBox="0 0 32 32">
<path  stroke-linejoin="round" stroke-linecap="round" stroke-miterlimit="4" stroke-width="1.3333" d="M4.010 10.667l10.521 7.014c0.896 0.597 2.063 0.597 2.958 0l10.521-7.014M6.676 25.333h18.667c1.473 0 2.667-1.194 2.667-2.667v-13.333c0-1.473-1.194-2.667-2.667-2.667h-18.667c-1.473 0-2.667 1.194-2.667 2.667v13.333c0 1.473 1.194 2.667 2.667 2.667z"></path>
</symbol>
<symbol id="icon-Icons-4" viewBox="0 0 32 32">
<path  stroke-linejoin="round" stroke-linecap="round" stroke-miterlimit="4" stroke-width="1.3333" d="M23.552 22.209c-1.249 1.249-3.86 3.86-5.657 5.657-1.041 1.041-2.728 1.042-3.769 0.001-1.766-1.766-4.327-4.327-5.658-5.658-4.166-4.166-4.166-10.919 0-15.085s10.919-4.166 15.085 0c4.166 4.166 4.166 10.919 0 15.085z"></path>
<path  stroke-linejoin="round" stroke-linecap="round" stroke-miterlimit="4" stroke-width="1.3333" d="M20.010 14.667c0 2.209-1.791 4-4 4s-4-1.791-4-4c0-2.209 1.791-4 4-4s4 1.791 4 4z"></path>
</symbol>
<symbol id="icon-Icons-5" viewBox="0 0 32 32">
<path  stroke-linejoin="round" stroke-linecap="round" stroke-miterlimit="10" stroke-width="1.6667" d="M2.242 15.522c7.229-2.764 28.066-11.269 28.066-11.269l-4.146 24.027c-0.213 1.169-1.595 1.595-2.445 0.851l-6.485-5.422-4.571 4.253 0.744-7.123 13.821-13.076-17.010 10.631 1.063 6.060-3.508-5.635-5.316-1.701c-0.851-0.319-0.957-1.382-0.213-1.595z"></path>
</symbol>

<symbol id="icon-Icons-6" viewBox="0 0 32 32">
<path  stroke-linejoin="round" stroke-linecap="round" stroke-miterlimit="4" stroke-width="1.6" d="M8.8 11.2l2.4 0.8M11.2 12l-2.4 7.2c1.418 1.067 3.383 1.067 4.801 0M11.2 12l2.4 7.2M11.2 12l4.8-1.6M20.8 12l2.4-0.8M20.8 12l-2.4 7.2c1.418 1.067 3.383 1.067 4.801 0M20.8 12l2.4 7.2M20.8 12l-4.8-1.6M16 8.8v1.6M16 23.2v-12.8M16 23.2h-2.4M16 23.2h2.4"></path>
</symbol>

<symbol id="icon-search" viewBox="0 0 32 32">
<path  stroke-linejoin="round" stroke-linecap="round" stroke-miterlimit="4" stroke-width="1.6" d="M24 23.2l-3.48-3.48M22.4 15.2c0 3.535-2.865 6.4-6.4 6.4s-6.4-2.865-6.4-6.4c0-3.535 2.865-6.4 6.4-6.4s6.4 2.865 6.4 6.4z"></path>
</symbol>
<symbol id="icon-shopping-bag" viewBox="0 0 32 32">
<path  stroke-linejoin="round" stroke-linecap="round" stroke-miterlimit="4" stroke-width="1.6" d="M8.8 11.2l2.4-3.2h9.6l2.4 3.2M8.8 11.2v11.2c0 0.424 0.169 0.831 0.469 1.131s0.707 0.469 1.131 0.469h11.2c0.424 0 0.831-0.169 1.131-0.469s0.469-0.707 0.469-1.131v-11.2M8.8 11.2h14.4M19.2 14.4c0 0.849-0.337 1.663-0.937 2.263s-1.414 0.937-2.263 0.937-1.663-0.337-2.263-0.937c-0.6-0.6-0.937-1.414-0.937-2.263"></path>
</symbol>
<symbol id="icon-user" viewBox="0 0 32 32">
<path  stroke-linejoin="round" stroke-linecap="round" stroke-miterlimit="4" stroke-width="1.6" d="M22.4 23.2v-1.6c0-0.849-0.337-1.663-0.937-2.263s-1.414-0.937-2.263-0.937h-6.4c-0.849 0-1.663 0.337-2.263 0.937s-0.937 1.414-0.937 2.263v1.6M19.2 12c0 1.767-1.433 3.2-3.2 3.2s-3.2-1.433-3.2-3.2c0-1.767 1.433-3.2 3.2-3.2s3.2 1.433 3.2 3.2z"></path>
</symbol>
<symbol id="icon-Vector-2" viewBox="0 0 41 32">
<path fill="none" stroke="#82b5d1" style="stroke: var(--color2, #82b5d1)" stroke-linejoin="round" stroke-linecap="round" stroke-miterlimit="4" stroke-width="3.7647" d="M1.882 1.882h37.647M1.882 16h37.647M1.882 30.118h37.647"></path>
</symbol>
</defs>
</svg>
